<?xml version="1.0" encoding="UTF-8" standalone="no"?>
<svg
   xmlns:dc="http://purl.org/dc/elements/1.1/"
   xmlns:cc="http://creativecommons.org/ns#"
   xmlns:rdf="http://www.w3.org/1999/02/22-rdf-syntax-ns#"
   xmlns:svg="http://www.w3.org/2000/svg"
   xmlns="http://www.w3.org/2000/svg"
   xmlns:sodipodi="http://sodipodi.sourceforge.net/DTD/sodipodi-0.dtd"
   xmlns:inkscape="http://www.inkscape.org/namespaces/inkscape"
   width="203.155pt"
   height="196.586pt"
   viewBox="0 0 203.155 196.586"
   version="1.2"
   id="svg99"
   sodipodi:docname="icon_services2.svg"
   inkscape:version="0.92.1 r15371">
  <metadata
     id="metadata103">
    <rdf:RDF>
      <cc:Work
         rdf:about="">
        <dc:format>image/svg+xml</dc:format>
        <dc:type
           rdf:resource="http://purl.org/dc/dcmitype/StillImage" />
        <dc:title></dc:title>
      </cc:Work>
    </rdf:RDF>
  </metadata>
  <sodipodi:namedview
     pagecolor="#ffffff"
     bordercolor="#666666"
     borderopacity="1"
     objecttolerance="10"
     gridtolerance="10"
     guidetolerance="10"
     inkscape:pageopacity="0"
     inkscape:pageshadow="2"
     inkscape:window-width="743"
     inkscape:window-height="480"
     id="namedview101"
     showgrid="false"
     inkscape:zoom="0.90036931"
     inkscape:cx="135.43667"
     inkscape:cy="131.05733"
     inkscape:window-x="0"
     inkscape:window-y="0"
     inkscape:window-maximized="0"
     inkscape:current-layer="svg99" />
  <defs
     id="defs14">
    <clipPath
       id="clip1">
      <path
         d="M 182 15 L 203.15625 15 L 203.15625 141 L 182 141 Z M 182 15 "
         id="path2" />
    </clipPath>
    <clipPath
       id="clip2">
      <path
         d="M 0 0 L 203.15625 0 L 203.15625 196.585938 L 0 196.585938 Z M 0 0 "
         id="path5" />
    </clipPath>
    <clipPath
       id="clip3">
      <path
         d="M 9 0 L 203.15625 0 L 203.15625 196.585938 L 9 196.585938 Z M 9 0 "
         id="path8" />
    </clipPath>
    <clipPath
       id="clip4">
      <path
         d="M 0 35 L 123 35 L 123 196.585938 L 0 196.585938 Z M 0 35 "
         id="path11" />
    </clipPath>
  </defs>
  <g
     id="surface38">
    <path
       style=" stroke:none;fill-rule:nonzero;fill:rgb(5.097961%,20.783997%,34.117126%);fill-opacity:1;"
       d="M 175.65625 175.34375 L 175.382813 176.949219 C 174.320313 183.195313 168.371094 187.414063 162.128906 186.347656 L 122.386719 179.585938 C 121.957031 180.597656 121.371094 181.535156 120.652344 182.332031 L 161.625 189.304688 C 162.445313 189.445313 163.257813 189.511719 164.0625 189.511719 C 170.992188 189.511719 177.136719 184.507813 178.339844 177.453125 L 178.929688 173.980469 C 177.824219 174.660156 176.726563 175.105469 175.65625 175.34375 "
       id="path16" />
    <g
       clip-path="url(#clip1)"
       clip-rule="nonzero"
       id="g20">
      <path
         style=" stroke:none;fill-rule:nonzero;fill:rgb(5.097961%,20.783997%,34.117126%);fill-opacity:1;"
         d="M 200.480469 22.027344 C 198.242188 18.871094 194.910156 16.777344 191.09375 16.128906 L 186.023438 15.265625 C 187.039063 16.21875 187.734375 17.394531 188.144531 18.667969 L 190.589844 19.085938 C 193.617188 19.601563 196.257813 21.261719 198.035156 23.765625 C 199.808594 26.269531 200.503906 29.3125 199.988281 32.339844 L 182.445313 135.433594 C 183.46875 137.121094 184.171875 138.878906 184.59375 140.691406 L 202.945313 32.839844 C 203.59375 29.027344 202.71875 25.1875 200.480469 22.027344 "
         id="path18" />
    </g>
    <g
       clip-path="url(#clip2)"
       clip-rule="nonzero"
       id="g24">
      <path
         style="fill:none;stroke-width:9;stroke-linecap:butt;stroke-linejoin:miter;stroke:rgb(100%,100%,100%);stroke-opacity:1;stroke-miterlimit:10;"
         d="M 0.00169375 -0.00086875 L -106.689712 -0.00086875 C -113.861587 -0.00086875 -119.677994 5.815538 -119.677994 12.987413 L -119.677994 159.678819 C -119.677994 166.850694 -113.861587 172.6671 -106.689712 172.6671 L 0.00169375 172.6671 C 7.173569 172.6671 12.986069 166.850694 12.986069 159.678819 L 12.986069 12.987413 C 12.986069 5.815538 7.173569 -0.00086875 0.00169375 -0.00086875 Z M 0.00169375 -0.00086875 "
         transform="matrix(1,0,0,-1,171.2444,177.1671)"
         id="path22" />
    </g>
    <g
       clip-path="url(#clip3)"
       clip-rule="nonzero"
       id="g28">
      <path
         style="fill:none;stroke-width:3;stroke-linecap:butt;stroke-linejoin:miter;stroke:rgb(5.097961%,20.783997%,34.117126%);stroke-opacity:1;stroke-miterlimit:10;"
         d="M 0.00169375 -0.00086875 L -106.689712 -0.00086875 C -113.861587 -0.00086875 -119.677994 5.815538 -119.677994 12.987413 L -119.677994 159.678819 C -119.677994 166.850694 -113.861587 172.6671 -106.689712 172.6671 L 0.00169375 172.6671 C 7.173569 172.6671 12.986069 166.850694 12.986069 159.678819 L 12.986069 12.987413 C 12.986069 5.815538 7.173569 -0.00086875 0.00169375 -0.00086875 Z M 0.00169375 -0.00086875 "
         transform="matrix(1,0,0,-1,171.2444,177.1671)"
         id="path26" />
    </g>
    <path
       style="fill:none;stroke-width:3;stroke-linecap:round;stroke-linejoin:miter;stroke:rgb(5.097961%,20.783997%,34.117126%);stroke-opacity:1;stroke-miterlimit:10;"
       d="M 0.0016375 -0.0013875 L 9.501638 -0.0013875 "
       transform="matrix(1,0,0,-1,67.7093,87.4908)"
       id="path30" />
    <path
       style="fill:none;stroke-width:3;stroke-linecap:round;stroke-linejoin:miter;stroke:rgb(5.097961%,20.783997%,34.117126%);stroke-opacity:1;stroke-miterlimit:10;"
       d="M 0.0016375 -0.0013875 L 39.001638 -0.0013875 "
       transform="matrix(1,0,0,-1,86.5843,87.4908)"
       id="path32" />
    <path
       style="fill:none;stroke-width:3;stroke-linecap:round;stroke-linejoin:miter;stroke:rgb(5.097961%,20.783997%,34.117126%);stroke-opacity:1;stroke-miterlimit:10;"
       d="M 0.0016375 -0.0013875 L 11.376638 -0.0013875 "
       transform="matrix(1,0,0,-1,155.2093,87.4908)"
       id="path34" />
    <path
       style="fill:none;stroke-width:3;stroke-linecap:round;stroke-linejoin:miter;stroke:rgb(5.097961%,20.783997%,34.117126%);stroke-opacity:1;stroke-miterlimit:10;"
       d="M 0.0016375 -0.0013875 L 2.876637 -0.0013875 "
       transform="matrix(1,0,0,-1,132.9593,87.4908)"
       id="path36" />
    <path
       style="fill:none;stroke-width:3;stroke-linecap:round;stroke-linejoin:miter;stroke:rgb(5.097961%,20.783997%,34.117126%);stroke-opacity:1;stroke-miterlimit:10;"
       d="M 0.0016375 -0.0013875 L 4.876637 -0.0013875 "
       transform="matrix(1,0,0,-1,143.8343,87.4908)"
       id="path38" />
    <path
       style="fill:none;stroke-width:3;stroke-linecap:round;stroke-linejoin:miter;stroke:rgb(5.097961%,20.783997%,34.117126%);stroke-opacity:1;stroke-miterlimit:10;"
       d="M 0.0016375 0.0001 L 9.501638 0.0001 "
       transform="matrix(1,0,0,-1,67.7093,99.0001)"
       id="path40" />
    <path
       style="fill:none;stroke-width:3;stroke-linecap:round;stroke-linejoin:miter;stroke:rgb(5.097961%,20.783997%,34.117126%);stroke-opacity:1;stroke-miterlimit:10;"
       d="M 0.0016375 0.0001 L 39.001638 0.0001 "
       transform="matrix(1,0,0,-1,86.5843,99.0001)"
       id="path42" />
    <path
       style="fill:none;stroke-width:3;stroke-linecap:round;stroke-linejoin:miter;stroke:rgb(5.097961%,20.783997%,34.117126%);stroke-opacity:1;stroke-miterlimit:10;"
       d="M 0.0016375 0.0001 L 11.376638 0.0001 "
       transform="matrix(1,0,0,-1,155.2093,99.0001)"
       id="path44" />
    <path
       style="fill:none;stroke-width:3;stroke-linecap:round;stroke-linejoin:miter;stroke:rgb(5.097961%,20.783997%,34.117126%);stroke-opacity:1;stroke-miterlimit:10;"
       d="M 0.0016375 0.0001 L 2.876637 0.0001 "
       transform="matrix(1,0,0,-1,132.9593,99.0001)"
       id="path46" />
    <path
       style="fill:none;stroke-width:3;stroke-linecap:round;stroke-linejoin:miter;stroke:rgb(5.097961%,20.783997%,34.117126%);stroke-opacity:1;stroke-miterlimit:10;"
       d="M 0.0016375 0.0001 L 4.876637 0.0001 "
       transform="matrix(1,0,0,-1,143.8343,99.0001)"
       id="path48" />
    <path
       style="fill:none;stroke-width:3;stroke-linecap:round;stroke-linejoin:miter;stroke:rgb(5.097961%,20.783997%,34.117126%);stroke-opacity:1;stroke-miterlimit:10;"
       d="M 0.0016375 0.0010875 L 9.501638 0.0010875 "
       transform="matrix(1,0,0,-1,67.7093,110.5089)"
       id="path50" />
    <path
       style="fill:none;stroke-width:3;stroke-linecap:round;stroke-linejoin:miter;stroke:rgb(5.097961%,20.783997%,34.117126%);stroke-opacity:1;stroke-miterlimit:10;"
       d="M 0.0016375 0.0010875 L 39.001638 0.0010875 "
       transform="matrix(1,0,0,-1,86.5843,110.5089)"
       id="path52" />
    <path
       style="fill:none;stroke-width:3;stroke-linecap:round;stroke-linejoin:miter;stroke:rgb(5.097961%,20.783997%,34.117126%);stroke-opacity:1;stroke-miterlimit:10;"
       d="M 0.0016375 0.0010875 L 11.376638 0.0010875 "
       transform="matrix(1,0,0,-1,155.2093,110.5089)"
       id="path54" />
    <path
       style="fill:none;stroke-width:3;stroke-linecap:round;stroke-linejoin:miter;stroke:rgb(5.097961%,20.783997%,34.117126%);stroke-opacity:1;stroke-miterlimit:10;"
       d="M 0.0016375 0.0010875 L 2.876637 0.0010875 "
       transform="matrix(1,0,0,-1,132.9593,110.5089)"
       id="path56" />
    <path
       style="fill:none;stroke-width:3;stroke-linecap:round;stroke-linejoin:miter;stroke:rgb(5.097961%,20.783997%,34.117126%);stroke-opacity:1;stroke-miterlimit:10;"
       d="M 0.0016375 0.0010875 L 4.876637 0.0010875 "
       transform="matrix(1,0,0,-1,143.8343,110.5089)"
       id="path58" />
    <path
       style="fill:none;stroke-width:3;stroke-linecap:round;stroke-linejoin:miter;stroke:rgb(5.097961%,20.783997%,34.117126%);stroke-opacity:1;stroke-miterlimit:10;"
       d="M 0.0016375 0.001075 L 39.001638 0.001075 "
       transform="matrix(1,0,0,-1,67.7093,119.5167)"
       id="path60" />
    <path
       style="fill:none;stroke-width:3;stroke-linecap:round;stroke-linejoin:miter;stroke:rgb(5.097961%,20.783997%,34.117126%);stroke-opacity:1;stroke-miterlimit:10;"
       d="M 0.0016375 0.00105 L 11.376638 0.00105 "
       transform="matrix(1,0,0,-1,67.7093,129.1573)"
       id="path62" />
    <path
       style="fill:none;stroke-width:3;stroke-linecap:round;stroke-linejoin:miter;stroke:rgb(5.097961%,20.783997%,34.117126%);stroke-opacity:1;stroke-miterlimit:10;"
       d="M 0.0016375 0.0000625 L 81.001638 0.0000625 "
       transform="matrix(1,0,0,-1,67.7093,77.711)"
       id="path64" />
    <path
       style="fill:none;stroke-width:3;stroke-linecap:round;stroke-linejoin:miter;stroke:rgb(5.097961%,20.783997%,34.117126%);stroke-opacity:1;stroke-miterlimit:10;"
       d="M 0.0016375 -0.000925 L 98.876638 -0.000925 "
       transform="matrix(1,0,0,-1,67.7093,66.7022)"
       id="path66" />
    <path
       style="fill:none;stroke-width:3;stroke-linecap:round;stroke-linejoin:miter;stroke:rgb(5.097961%,20.783997%,34.117126%);stroke-opacity:1;stroke-miterlimit:10;"
       d="M 0.0016375 -0.0018125 L 98.876638 -0.0018125 "
       transform="matrix(1,0,0,-1,67.7093,55.6935)"
       id="path68" />
    <path
       style="fill:none;stroke-width:3;stroke-linecap:round;stroke-linejoin:miter;stroke:rgb(5.097961%,20.783997%,34.117126%);stroke-opacity:1;stroke-miterlimit:10;"
       d="M 0.0016375 0.00110625 L 57.876638 0.00110625 "
       transform="matrix(1,0,0,-1,67.7093,44.6847)"
       id="path70" />
    <path
       style=" stroke:none;fill-rule:nonzero;fill:rgb(5.097961%,20.783997%,34.117126%);fill-opacity:1;"
       d="M 77.210938 83.992188 L 67.710938 83.992188 C 65.777344 83.992188 64.210938 85.558594 64.210938 87.492188 C 64.210938 89.421875 65.777344 90.992188 67.710938 90.992188 L 77.210938 90.992188 C 79.140625 90.992188 80.710938 89.421875 80.710938 87.492188 C 80.710938 85.558594 79.140625 83.992188 77.210938 83.992188 "
       id="path72" />
    <path
       style=" stroke:none;fill-rule:nonzero;fill:rgb(5.097961%,20.783997%,34.117126%);fill-opacity:1;"
       d="M 116.292969 84.191406 C 116.300781 84.125 116.300781 84.058594 116.308594 83.992188 L 86.585938 83.992188 C 84.652344 83.992188 83.085938 85.558594 83.085938 87.492188 C 83.085938 89.421875 84.652344 90.992188 86.585938 90.992188 L 115.066406 90.992188 C 115.671875 88.835938 116.089844 86.566406 116.292969 84.191406 "
       id="path74" />
    <path
       style=" stroke:none;fill-rule:nonzero;fill:rgb(5.097961%,20.783997%,34.117126%);fill-opacity:1;"
       d="M 77.210938 95.5 L 67.710938 95.5 C 65.777344 95.5 64.210938 97.066406 64.210938 99 C 64.210938 100.933594 65.777344 102.5 67.710938 102.5 L 77.210938 102.5 C 79.140625 102.5 80.710938 100.933594 80.710938 99 C 80.710938 97.066406 79.140625 95.5 77.210938 95.5 "
       id="path76" />
    <path
       style=" stroke:none;fill-rule:nonzero;fill:rgb(5.097961%,20.783997%,34.117126%);fill-opacity:1;"
       d="M 113.4375 95.5 L 86.582031 95.5 C 84.652344 95.5 83.082031 97.066406 83.082031 99 C 83.082031 100.933594 84.652344 102.5 86.582031 102.5 L 109.269531 102.5 C 110.9375 100.34375 112.332031 98.007813 113.4375 95.5 "
       id="path78" />
    <path
       style=" stroke:none;fill-rule:nonzero;fill:rgb(5.097961%,20.783997%,34.117126%);fill-opacity:1;"
       d="M 77.210938 107.007813 L 67.710938 107.007813 C 65.777344 107.007813 64.210938 108.574219 64.210938 110.507813 C 64.210938 112.441406 65.777344 114.007813 67.710938 114.007813 L 77.210938 114.007813 C 79.140625 114.007813 80.710938 112.441406 80.710938 110.507813 C 80.710938 108.574219 79.140625 107.007813 77.210938 107.007813 "
       id="path80" />
    <path
       style=" stroke:none;fill-rule:nonzero;fill:rgb(5.097961%,20.783997%,34.117126%);fill-opacity:1;"
       d="M 97.777344 112.460938 C 100.492188 110.84375 102.949219 109.023438 105.128906 107.007813 L 86.585938 107.007813 C 84.652344 107.007813 83.085938 108.574219 83.085938 110.507813 C 83.085938 112.441406 84.652344 114.007813 86.585938 114.007813 L 95.796875 114.007813 C 96.355469 113.445313 97.003906 112.925781 97.777344 112.460938 "
       id="path82" />
    <path
       style=" stroke:none;fill-rule:nonzero;fill:rgb(5.097961%,20.783997%,34.117126%);fill-opacity:1;"
       d="M 116.425781 74.210938 L 67.710938 74.210938 C 65.777344 74.210938 64.210938 75.777344 64.210938 77.710938 C 64.210938 79.644531 65.777344 81.210938 67.710938 81.210938 L 116.476563 81.210938 C 116.574219 78.875 116.558594 76.539063 116.425781 74.210938 "
       id="path84" />
    <path
       style=" stroke:none;fill-rule:nonzero;fill:rgb(5.097961%,20.783997%,34.117126%);fill-opacity:1;"
       d="M 115.003906 63.203125 L 67.710938 63.203125 C 65.777344 63.203125 64.210938 64.769531 64.210938 66.703125 C 64.210938 68.636719 65.777344 70.203125 67.710938 70.203125 L 116.085938 70.203125 C 115.828125 67.855469 115.464844 65.519531 115.003906 63.203125 "
       id="path86" />
    <path
       style=" stroke:none;fill-rule:nonzero;fill:rgb(5.097961%,20.783997%,34.117126%);fill-opacity:1;"
       d="M 111.027344 52.710938 C 110.757813 52.542969 110.496094 52.363281 110.226563 52.191406 L 67.710938 52.191406 C 65.777344 52.191406 64.210938 53.761719 64.210938 55.691406 C 64.210938 57.628906 65.777344 59.191406 67.710938 59.191406 L 114.121094 59.191406 C 113.644531 57.25 113.089844 55.328125 112.496094 53.417969 C 111.984375 53.230469 111.492188 53 111.027344 52.710938 "
       id="path88" />
    <path
       style=" stroke:none;fill-rule:nonzero;fill:rgb(5.097961%,20.783997%,34.117126%);fill-opacity:1;"
       d="M 102.492188 47.894531 C 99.109375 46.957031 96.835938 44.3125 96.0625 41.183594 L 67.710938 41.183594 C 65.777344 41.183594 64.210938 42.75 64.210938 44.683594 C 64.210938 46.617188 65.777344 48.183594 67.710938 48.183594 L 103.449219 48.183594 C 103.132813 48.082031 102.816406 47.976563 102.492188 47.894531 "
       id="path90" />
    <path
       style=" stroke:none;fill-rule:nonzero;fill:rgb(5.097961%,20.783997%,34.117126%);fill-opacity:1;"
       d="M 77.351563 43.097656 C 71.847656 43.097656 66.507813 44.277344 61.480469 46.605469 C 52.308594 50.851563 45.332031 58.433594 41.839844 67.949219 C 38.347656 77.46875 38.761719 87.761719 43.011719 96.9375 C 49.195313 110.285156 62.71875 118.910156 77.472656 118.910156 C 82.976563 118.910156 88.316406 117.734375 93.339844 115.40625 C 102.515625 111.15625 109.492188 103.574219 112.984375 94.058594 C 116.476563 84.539063 116.058594 74.246094 111.8125 65.074219 C 105.628906 51.722656 92.101563 43.097656 77.351563 43.097656 M 38.648438 154.363281 L 49.183594 137.46875 C 49.75 136.558594 49.929688 135.484375 49.6875 134.445313 C 49.625 134.167969 49.535156 133.902344 49.417969 133.652344 C 49.09375 132.949219 48.570313 132.363281 47.90625 131.949219 L 44.644531 129.914063 C 44.007813 129.519531 43.28125 129.308594 42.535156 129.308594 C 41.136719 129.308594 39.859375 130.015625 39.125 131.195313 L 28.589844 148.089844 Z M 34.539063 160.953125 L 35.472656 159.453125 L 25.414063 153.179688 L 24.480469 154.675781 Z M 8.109375 180.929688 C 7.542969 181.832031 7.367188 182.910156 7.609375 183.953125 C 7.851563 184.996094 8.480469 185.882813 9.386719 186.449219 L 12.648438 188.480469 C 13.285156 188.875 14.015625 189.085938 14.761719 189.085938 C 16.160156 189.085938 17.433594 188.382813 18.167969 187.203125 L 31.367188 166.042969 L 21.304688 159.769531 Z M 14.753906 195.085938 C 12.886719 195.085938 11.0625 194.5625 9.472656 193.574219 L 6.214844 191.539063 C 4.558594 190.507813 3.253906 189.03125 2.433594 187.265625 C 1.007813 184.183594 1.226563 180.625 3.015625 177.753906 L 34.035156 128.019531 C 35.871094 125.070313 39.050781 123.308594 42.539063 123.308594 C 44.042969 123.308594 45.523438 123.652344 46.875 124.304688 L 51.6875 116.582031 C 45.601563 112.191406 40.734375 106.296875 37.566406 99.457031 C 32.644531 88.832031 32.164063 76.90625 36.207031 65.886719 C 40.25 54.863281 48.332031 46.082031 58.957031 41.160156 C 64.78125 38.464844 70.96875 37.097656 77.347656 37.097656 C 94.429688 37.097656 110.09375 47.089844 117.253906 62.554688 C 122.175781 73.179688 122.660156 85.101563 118.613281 96.125 C 114.570313 107.148438 106.488281 115.929688 95.863281 120.851563 C 90.046875 123.542969 83.867188 124.910156 77.496094 124.910156 C 70.292969 124.910156 63.167969 123.125 56.789063 119.738281 L 51.964844 127.476563 C 53.757813 128.875 55.007813 130.835938 55.53125 133.089844 C 56.132813 135.695313 55.6875 138.378906 54.273438 140.644531 L 23.261719 190.375 C 21.417969 193.324219 18.242188 195.085938 14.753906 195.085938 Z M 14.753906 195.085938 "
       id="path92" />
    <g
       clip-path="url(#clip4)"
       clip-rule="nonzero"
       id="g96">
      <path
         style=" stroke:none;fill-rule:nonzero;fill:rgb(100%,100%,100%);fill-opacity:1;"
         d="M 14.761719 187.585938 C 14.296875 187.585938 13.839844 187.457031 13.441406 187.210938 L 10.183594 185.175781 C 9.613281 184.820313 9.21875 184.269531 9.070313 183.613281 C 8.914063 182.960938 9.027344 182.285156 9.382813 181.722656 L 21.78125 161.835938 L 29.296875 166.523438 L 16.898438 186.40625 C 16.4375 187.148438 15.636719 187.585938 14.761719 187.585938 M 30.65625 147.609375 L 40.398438 131.988281 C 40.859375 131.25 41.65625 130.808594 42.53125 130.808594 C 42.996094 130.808594 43.453125 130.941406 43.851563 131.1875 L 47.113281 133.21875 C 47.527344 133.480469 47.855469 133.847656 48.054688 134.28125 C 48.128906 134.441406 48.1875 134.609375 48.226563 134.78125 C 48.378906 135.441406 48.273438 136.097656 47.910156 136.675781 L 38.171875 152.296875 Z M 77.472656 117.410156 C 63.300781 117.410156 50.308594 109.128906 44.371094 96.304688 C 40.292969 87.496094 39.894531 77.609375 43.246094 68.46875 C 46.601563 59.324219 53.300781 52.046875 62.109375 47.964844 C 66.9375 45.730469 72.0625 44.597656 77.351563 44.597656 C 91.519531 44.597656 104.511719 52.882813 110.449219 65.703125 C 118.886719 83.921875 110.929688 105.605469 92.710938 114.042969 C 87.886719 116.277344 82.757813 117.410156 77.472656 117.410156 M 77.347656 35.597656 C 70.746094 35.597656 64.347656 37.011719 58.328125 39.796875 C 35.605469 50.320313 25.683594 77.367188 36.203125 100.085938 C 39.285156 106.734375 43.914063 112.519531 49.6875 116.960938 L 46.269531 122.433594 C 45.074219 122.023438 43.816406 121.808594 42.539063 121.808594 C 38.53125 121.808594 34.875 123.835938 32.761719 127.226563 L 1.742188 176.960938 C -0.316406 180.265625 -0.566406 184.351563 1.074219 187.894531 C 2.015625 189.925781 3.519531 191.625 5.421875 192.8125 L 8.679688 194.84375 C 10.507813 195.984375 12.609375 196.585938 14.753906 196.585938 C 18.761719 196.585938 22.417969 194.5625 24.53125 191.171875 L 55.546875 141.4375 C 57.171875 138.832031 57.6875 135.746094 56.992188 132.75 C 56.496094 130.609375 55.429688 128.703125 53.910156 127.191406 L 57.335938 121.703125 C 63.601563 124.789063 70.515625 126.40625 77.492188 126.40625 C 84.085938 126.40625 90.480469 124.996094 96.492188 122.210938 C 119.214844 111.6875 129.140625 84.644531 118.617188 61.921875 C 111.210938 45.929688 95.011719 35.597656 77.347656 35.597656 M 14.761719 190.585938 C 16.597656 190.585938 18.398438 189.667969 19.441406 187.996094 L 33.433594 165.5625 L 20.824219 157.699219 L 6.835938 180.132813 C 5.230469 182.710938 6.019531 186.113281 8.59375 187.722656 L 11.855469 189.753906 C 12.757813 190.316406 13.765625 190.585938 14.761719 190.585938 M 35.019531 163.019531 L 37.539063 158.976563 L 24.933594 151.113281 L 22.410156 155.15625 L 35.019531 163.019531 M 39.128906 156.429688 L 50.457031 138.261719 C 51.234375 137.015625 51.480469 135.535156 51.148438 134.105469 C 51.0625 133.726563 50.9375 133.367188 50.777344 133.023438 C 50.332031 132.0625 49.617188 131.246094 48.699219 130.675781 L 45.4375 128.640625 C 44.53125 128.078125 43.527344 127.808594 42.53125 127.808594 C 40.695313 127.808594 38.894531 128.730469 37.851563 130.398438 L 26.523438 148.566406 L 39.128906 156.429688 M 77.472656 120.410156 C 83.007813 120.410156 88.628906 119.238281 93.972656 116.765625 C 113.691406 107.632813 122.304688 84.160156 113.171875 64.441406 C 106.515625 50.066406 92.238281 41.59375 77.351563 41.597656 C 71.816406 41.597656 66.195313 42.769531 60.851563 45.242188 C 41.132813 54.375 32.519531 77.847656 41.648438 97.566406 C 48.308594 111.941406 62.582031 120.410156 77.472656 120.410156 M 77.347656 38.597656 C 93.367188 38.597656 108.730469 47.714844 115.894531 63.183594 C 125.722656 84.402344 116.453125 109.660156 95.234375 119.488281 C 89.488281 122.148438 83.445313 123.40625 77.492188 123.40625 C 70.023438 123.40625 62.691406 121.421875 56.269531 117.738281 L 49.929688 127.90625 L 50.285156 128.128906 C 54.269531 130.613281 55.484375 135.871094 53.003906 139.851563 L 21.988281 189.582031 C 20.375 192.164063 17.597656 193.585938 14.753906 193.585938 C 13.21875 193.585938 11.664063 193.171875 10.269531 192.300781 L 7.007813 190.265625 C 5.554688 189.359375 4.46875 188.082031 3.796875 186.632813 C 2.628906 184.113281 2.714844 181.074219 4.289063 178.546875 L 35.308594 128.8125 C 36.917969 126.230469 39.695313 124.808594 42.539063 124.808594 C 44.074219 124.808594 45.628906 125.226563 47.023438 126.097656 L 47.382813 126.320313 L 53.714844 116.164063 C 47.492188 111.984375 42.300781 106.109375 38.925781 98.824219 C 29.101563 77.605469 38.367188 52.347656 59.589844 42.519531 C 65.339844 39.855469 71.390625 38.597656 77.347656 38.597656 "
         id="path94" />
    </g>
  </g>
</svg>
